<svg id="_x33_0" enable-background="new 0 0 64 64" height="512" viewBox="0 0 64 64" width="512" xmlns="http://www.w3.org/2000/svg"><g><g><g><path d="m62 44v8c0 1.1-.9 2-2 2h-2v-3.9c0-2.26-.74-4.35-2-6.03v-4.07h6z" fill="#ffeaa7"/></g><g><path d="m62 40h-6v-6c3.31 0 6 2.69 6 6z" fill="#ffeaa7"/></g><g><path d="m28 23.61v9.06l-3.15.7c-.3.07-.58.16-.85.29v-12.36c0-.72.58-1.3 1.3-1.3.44 0 .85.22 1.09.58l1.27 1.92c.22.32.34.71.34 1.11z" fill="#ccd1d9"/></g><g><path d="m57 13v2c0 .55-.45 1-1 1h-2-12-8c-.55 0-1-.45-1-1v-2c0-.55.45-1 1-1h22c.55 0 1 .45 1 1z" fill="#fcd770"/></g><g><path d="m53.24 30.78-9.68-.78c-.62 0-1.19.28-1.56.75v-14.75h12v14.94c-.24-.08-.49-.14-.76-.16z" fill="#ffeaa7"/></g><g><path d="m33.29 33.75.71 4.25h6l1.62-6.49c.07-.29.2-.55.38-.76.37-.47.94-.75 1.56-.75l9.68.78c.27.02.52.08.76.16 1.17.41 2 1.53 2 2.83v.23 6 4.07c-.29-.4-.61-.77-.96-1.11-1.82-1.83-4.35-2.96-7.14-2.96-1.26 0-2.5.23-3.67.69l-2.61 1.01-11.56 4.5-8.75-5.1.43-4.19c.12-1.43 1-2.66 2.26-3.25.27-.13.55-.22.85-.29l3.15-.7 2.78-.62c.07-.01.14-.03.22-.04s.16-.01.23-.01c.74 0 1.41.39 1.77 1 .15.22.24.48.29.75z" fill="#fcd770"/></g><g><path d="m50 62h-23c3.53 0 6.44-2.61 6.93-6h8.32c.89 3.45 4.02 6 7.75 6z" fill="#ccd1d9"/></g><g><path d="m56 44.07c-.29-.4-.61-.77-.96-1.11-1.82-1.83-4.35-2.96-7.14-2.96-1.26 0-2.5.23-3.67.69l-2.61 1.01-11.56 4.5 9.94 5.8h2.25c.43-1.68 1.39-3.14 2.7-4.2 1.37-1.13 3.13-1.8 5.05-1.8 4.42 0 8 3.58 8 8v-3.9c0-2.26-.74-4.35-2-6.03z" fill="#ccd1d9"/></g><g><path d="m43 42c1.66 0 3 1.34 3 3 0 1.04-.52 1.95-1.32 2.49-.48.32-1.06.51-1.68.51-1.66 0-3-1.34-3-3 0-1.24.75-2.31 1.83-2.76.36-.16.75-.24 1.17-.24z" fill="#ff826e"/></g><g><path d="m10.67 58-2.67 4h-6v-1.93c0-.67.33-1.29.89-1.66l1.82-1.22c.19-.12.33-.3.4-.52l.43-1.3c.28-.82 1.04-1.37 1.9-1.37h1.56l3 2z" fill="#aab2bd"/></g><g><path d="m16 56v5c0 .55-.45 1-1 1h-7l2.67-4 1.33-2-3-2 3.57-16.05c.25-1.14 1.26-1.95 2.43-1.95.55 0 1 .45 1 1v1 4 10z" fill="#ccd1d9"/></g><g><path d="m40 52h-6.86l-6.8-3.97-5.41-3.15v-.01l-4.93-2.87v-4l5.31 3.1 8.75 5.1z" fill="#aab2bd"/></g><g><path d="m20.07 56h13.86c-.49 3.39-3.4 6-6.93 6s-6.44-2.61-6.93-6z" fill="#838f9b"/></g><g><path d="m33.14 52h-12.47c1.04-2.18 3.16-3.73 5.67-3.97z" fill="#838f9b"/></g><g><path d="m50 46c4.42 0 8 3.58 8 8s-3.58 8-8 8c-3.73 0-6.86-2.55-7.75-6h8.75c.55 0 1-.45 1-1v-2c0-.55-.45-1-1-1h-8.75c.43-1.68 1.39-3.14 2.7-4.2 1.37-1.13 3.13-1.8 5.05-1.8z" fill="#838f9b"/></g><g><path d="m20.2 52h.47 12.47 6.86 2.25 8.75c.55 0 1 .45 1 1v2c0 .55-.45 1-1 1h-8.75-8.32-13.86-4.07v-4z" fill="#aab2bd"/></g><g><path d="m46 20h4v6h-4z" fill="#69d6f4"/></g></g><g><path d="m56.932 33.07c-.21-1.164-.935-2.156-1.932-2.742v-13.328h1c1.103 0 2-.897 2-2v-2c0-1.103-.897-2-2-2h-22c-1.103 0-2 .897-2 2v2c0 .68.343 1.28.863 1.642l-2.724 14.526-1.139.252v-7.815c0-.593-.174-1.168-.504-1.664l-1.277-1.916c-.428-.642-1.144-1.025-1.916-1.025-1.27 0-2.303 1.033-2.303 2.303v11.782c-1.26.816-2.117 2.165-2.26 3.723l-.268 2.643-3.472-2.025v-.426c0-1.103-.897-2-2-2-1.65 0-3.053 1.125-3.41 2.735l-3.392 15.265h-.757c-1.293 0-2.437.824-2.846 2.051l-.435 1.307-1.824 1.216c-.837.558-1.336 1.491-1.336 2.496v2.93h14c1.103 0 2-.897 2-2v-4h2.258c.9 3.474 4.082 6 7.742 6h23c4.625 0 8.442-3.507 8.941-8h1.059c1.654 0 3-1.346 3-3v-12c0-3.543-2.648-6.472-6.068-6.93zm-53.932 27.93v-.93c0-.335.166-.646.445-.832l1.826-1.217c.367-.246.646-.612.785-1.031l.436-1.307c.137-.408.519-.683.949-.683h1.256l1.916 1.277-.481.723h-2.132v2h.798l-1.333 2zm12 0h-5.132l3.519-5.277-3.262-2.175 3.418-15.379c.152-.689.752-1.169 1.457-1.169zm45.899-22h-3.899v-3.899c1.956.399 3.5 1.943 3.899 3.899zm-20.629 12-7.918-4.619 6.882-2.677c-.141.409-.234.84-.234 1.296 0 2.05 1.556 3.725 3.546 3.954-.424.627-.775 1.311-1.033 2.046zm2.73-4c-1.103 0-2-.897-2-2s.897-2 2-2 2 .897 2 2-.897 2-2 2zm1.917-5.489c.96-.333 1.959-.511 2.979-.511 4.326 0 7.949 3.035 8.871 7.085-1.651-1.886-4.069-3.085-6.767-3.085-1.066 0-2.095.19-3.054.536.024-.177.054-.352.054-.536 0-1.508-.848-2.807-2.083-3.489zm8.083-11.755-9.438-.756c-.192 0-.379.022-.562.057v-12.057h10zm-15.707 2.951 1.414-1.414-4-4-1.414 1.414 1.293 1.293-1.575 1.575c-.254-.18-.533-.323-.835-.419l2.653-14.156h6.171v13.451c-.152.251-.274.525-.349.822l-1.432 5.727h-4.372l-.569-3.418c-.02-.122-.058-.237-.092-.354l1.814-1.814zm-3.293-19.707h22l.001 2h-22.001zm-8.445 8.135 1.277 1.916c.109.165.168.357.168.554v8.259l-2 .444v-11.005c.001-.269.404-.392.555-.168zm-2.824 15.865c.119-1.306 1.059-2.374 2.337-2.658l5.927-1.316c.587-.132 1.209.279 1.31.885l.848 5.089h7.628l1.81-7.242c.112-.446.511-.758.891-.761l9.679.778c1.032.083 1.84.958 1.84 1.994v7.811c-1.928-1.609-4.405-2.58-7.105-2.58-1.382 0-2.736.254-4.024.755l-13.726 5.338-7.774-4.535zm13.57 14h-2.888l-16.413-9.574v-1.685zm-19.301-7.259 2.867 1.672-.568 5.587h-2.299zm4.491 5.475.274-2.695 2.016 1.176c-.845.373-1.621.883-2.29 1.519zm4.65-.143 3.303 1.927h-6.903c.931-1.034 2.203-1.725 3.6-1.927zm-9.141 3.927h34v2h-34zm4.35 4h11.3c-.834 2.343-3.085 4-5.65 4s-4.815-1.657-5.65-4zm10.922 4c1.183-1.039 2.061-2.421 2.47-4h6.771c.565 1.603 1.562 2.973 2.835 4zm17.728 0c-2.743 0-5.176-1.596-6.316-4h7.316c1.103 0 2-.897 2-2v-2c0-1.103-.897-2-2-2h-7.316c1.14-2.404 3.573-4 6.316-4 3.859 0 7 3.14 7 7s-3.141 7-7 7zm10-8h-1v-2.896c0-2.357-.743-4.54-2-6.339v-2.765h4v2h-2v2h2v7c0 .551-.448 1-1 1z"/><path d="m25 37h2v2h-2z"/><path d="m29 37h2v2h-2z"/><path d="m27 41h2v2h-2z"/><path d="m51 19h-6v8h6zm-2 6h-2v-4h2z"/></g></g></svg>