<svg id="Layer_3" enable-background="new 0 0 64 64" height="512" viewBox="0 0 64 64" width="512" xmlns="http://www.w3.org/2000/svg"><g><path d="m36 12h23v20h-23z" fill="#c7e2fc"/><path d="m36 32h3.516c7.315-1.664 12.779-8.195 12.779-16.014 0-1.377-.188-2.707-.507-3.986h-15.788z" fill="#ebf7fe"/><path d="m52 29h7v3h-7z" fill="#534f44"/><path d="m36 25h-24.776c-5.094 0-9.224 4.13-9.224 9.224 0 1.173.224 2.336.66 3.426l1.34 3.35h23l5-5h4z" fill="#f7d881"/><path d="m29 39v-4c0-2.209-1.791-4-4-4h-16c-2.209 0-4 1.791-4 4v6h22z" fill="#f2c351"/><circle cx="17" cy="45" fill="#534f44" r="11"/><path d="m56 25v-7c0-.552.448-1 1-1h2v8.2z" fill="#534f44"/><path d="m60.012 33.591-.012 8.409-2 2h-22l-6 6h-26c-1.105 0-2-.895-2-2v-5c0-1.105.895-2 2-2h23l5-5h4v-4h26z" fill="#f2c351"/><path d="m3.623 29h4.377c2.209 0 4-1.791 4-4h-.776c-3.154 0-5.939 1.583-7.602 3.999z" fill="#e7e4dd"/><circle cx="49" cy="47" fill="#534f44" r="9"/><circle cx="49" cy="47" fill="#cbc3b6" r="4"/><path d="m36 40h2l5-4h14l5-4h-26z" fill="#f7d881"/><path d="m60 12h-24c-1.105 0-2-.895-2-2 0-1.105.895-2 2-2h24c1.105 0 2 .895 2 2 0 1.105-.895 2-2 2z" fill="#7f786b"/><path d="m59 29h-8c-1.105 0-2-.895-2-2 0-1.105.895-2 2-2h8z" fill="#7f786b"/><path d="m10.071 40.999c1.383-2.39 3.968-3.999 6.929-3.999s5.546 1.609 6.929 3.999" fill="#9e968d"/><path d="m23.245 50.001c-1.466 1.828-3.719 2.999-6.245 2.999s-4.779-1.171-6.245-3" fill="#9e968d"/><path d="m20.5 47h-7c-.828 0-1.5-.672-1.5-1.5 0-.828.672-1.5 1.5-1.5h7c.828 0 1.5.672 1.5 1.5 0 .828-.672 1.5-1.5 1.5z" fill="#534f44"/><g><path d="m6.499 46.998c-.827 0-1.5-.673-1.5-1.499 0-.827.673-1.5 1.5-1.5.826 0 1.499.673 1.499 1.5 0 .826-.673 1.499-1.499 1.499zm0-1.999c-.276 0-.5.224-.5.5 0 .275.224.499.5.499.275 0 .499-.224.499-.499 0-.276-.224-.5-.499-.5z" fill="#534f44"/></g><g><path d="m27.499 46.998c-.827 0-1.5-.673-1.5-1.499 0-.827.673-1.5 1.5-1.5.826 0 1.499.673 1.499 1.5 0 .826-.673 1.499-1.499 1.499zm0-1.999c-.276 0-.5.224-.5.5 0 .275.224.499.5.499.275 0 .499-.224.499-.499 0-.276-.224-.5-.499-.5z" fill="#534f44"/></g><g><path d="m31.499 43.998c-.827 0-1.5-.673-1.5-1.499 0-.827.673-1.5 1.5-1.5.826 0 1.499.673 1.499 1.5 0 .826-.673 1.499-1.499 1.499zm0-1.999c-.276 0-.5.224-.5.5 0 .275.224.499.5.499.275 0 .499-.224.499-.499 0-.276-.224-.5-.499-.5z" fill="#534f44"/></g><path d="m47.706 21.292-4-4-1.415 1.415 1.293 1.292-2.637 2.637 1.48 1.349 2.572-2.571 1.292 1.293z" fill="#7f786b"/><path d="m20 25v-4h6v4" fill="#7f786b"/><path d="m21 21v-6l4-4 3 3-3 3v4" fill="#e7e4dd"/><g><path d="m31.999 28h1.999v5h-1.999z" fill="#7f786b"/></g><path d="m43 32v-7c0-1.657-1.343-3-3-3h-4v10z" fill="#cbc3b6"/><g><path d="m35.999 28h6.999v2h-6.999z" fill="#7f786b"/></g><g><path d="m49 41.999c-2.758 0-5 2.242-5 5 0 2.757 2.242 4.999 5 4.999 2.757 0 4.999-2.242 4.999-4.999 0-2.758-2.242-5-4.999-5zm0 7.999c-1.654 0-3-1.346-3-2.999 0-1.654 1.346-3 3-3 1.653 0 2.999 1.346 2.999 3 0 1.653-1.346 2.999-2.999 2.999z"/><path d="m62.943 31.668c-.14-.4-.519-.668-.944-.668h-2v-2-4-12h.001c1.653 0 2.998-1.346 2.998-3s-1.345-3-2.998-3h-24c-1.654 0-3 1.346-3 3 0 1.302.839 2.401 2 2.815v11.185h-8.001v-3c0-.553-.447-1-1-1v-2.586l2.708-2.707c.39-.391.39-1.024 0-1.415l-3-3c-.39-.389-1.023-.391-1.415 0l-4 4c-.188.187-.292.442-.292.708v5c-.553 0-1 .447-1 1v3h-7.777c-5.637 0-10.223 4.586-10.223 10.224 0 1.307.245 2.584.73 3.796l.925 2.312c-.977.495-1.655 1.498-1.655 2.667v4.999c0 1.654 1.346 3 3 3h2.61c2.143 3.715 6.066 6 10.39 6 4.322 0 8.245-2.285 10.388-6h2.611c.266 0 .521-.104.708-.292l5.707-5.708h2.788c-.132.647-.202 1.316-.202 2.001 0 5.514 4.485 9.999 10 9.999 5.514 0 9.999-4.485 9.999-9.999 0-.795-.103-1.564-.279-2.306l1.987-1.987c.188-.188.292-.442.292-.708v-7.918l1.625-1.3c.332-.265.46-.711.319-1.112zm-25.944-8.668h3c1.104 0 2 .897 2 2v3h-5zm0 6.999h5v1h-5zm.001 3.001h22.148l-2.5 2h-13.648c-.228 0-.448.077-.625.219l-4.727 3.78h-.648zm15.999-2v-1h5.001v1zm5.001-7h-1v-6h1zm-.001 2v2h-7.001c-.551 0-.998-.448-.998-1s.447-1 .998-1zm.001-10h-1c-1.104 0-2 .897-2 2v6h-4.002c-1.653 0-2.998 1.345-2.998 3 0 1.654 1.345 2.999 2.998 2.999h.002v1h-7.001v-6c0-.739-.215-1.424-.566-2.019l1.567-1.566 1.292 1.292 1.415-1.415-4-4-1.415 1.415 1.293 1.293-1.567 1.567c-.595-.351-1.279-.566-2.019-.566h-3v-8h21.001zm-22-7h24c.551 0 .998.449.998 1s-.447.999-.998.999h-24c-.552 0-1-.448-1-1 0-.551.448-.999 1-.999zm-14 6.414 2.999-3 1.586 1.586-2.293 2.292c-.188.187-.292.442-.292.707v3h-2zm-1 6.586h3.999v2h-3.999zm-10.192 4.021c-.42 1.15-1.515 1.979-2.808 1.979h-2.136c1.342-1.159 3.06-1.885 4.944-1.979zm-6.627 3.978h3.819c2.413 0 4.432-1.72 4.898-4h22.102v6 3h-3.001c-.265 0-.52.104-.707.292l-1.293 1.293v-1.585c0-2.757-2.242-5-5-5h-15.999c-2.758 0-5 2.243-5 5v3.31l-.413-1.032c-.39-.975-.587-2.003-.587-3.053 0-1.546.436-2.988 1.181-4.225zm20.278 10c-1.663-2.474-4.459-4-7.459-4-3.001 0-5.798 1.526-7.461 4h-1.206c1.766-3.079 5.027-5 8.667-5 3.62 0 6.888 1.926 8.657 5zm-2.569 0h-9.782c1.293-1.26 3.045-2 4.892-2 1.846 0 3.597.74 4.89 2zm6.109-1.414-.541.541c-2.106-3.761-6.066-6.126-10.458-6.126-4.749 0-8.953 2.727-10.906 7h-.094v-5c0-1.654 1.346-3 3-3h15.999c1.654 0 3 1.345 3 3zm-10.999 16.413c-3.193 0-6.115-1.506-7.984-4h1.293c1.709 1.906 4.114 3 6.691 3s4.982-1.094 6.69-3h1.293c-1.87 2.494-4.791 4-7.983 4zm-3.601-4h7.201c-1.073.645-2.309 1-3.6 1s-2.528-.355-3.601-1zm35.601 4c-4.412 0-8-3.588-8-7.999 0-4.412 3.588-8 8-8 4.411 0 7.999 3.588 7.999 8 0 4.411-3.588 7.999-7.999 7.999zm10-13.414-1.028 1.028c-1.629-3.318-5.033-5.613-8.972-5.613-4.092 0-7.613 2.472-9.159 6h-3.842c-.265 0-.52.104-.707.292l-5.707 5.707h-25.585c-.552 0-1-.448-1-1v-4.999c0-.552.448-1 1-1h22.999c.266 0 .521-.105.708-.293l4.707-4.707h2.586v2.999c0 .553.447 1 1 1h2c.227 0 .447-.077.624-.219l4.727-3.781h13.648c.228 0 .448-.077.625-.219l1.376-1.1z"/><path d="m20.499 42.999h-7.001c-1.378 0-2.498 1.121-2.498 2.501 0 1.378 1.12 2.498 2.498 2.498h7.001c1.379 0 2.5-1.121 2.5-2.499 0-1.379-1.121-2.5-2.5-2.5zm0 2.999h-7.001c-.274 0-.498-.224-.498-.499 0-.276.224-.5.498-.5h7.001c.276 0 .5.225.5.501 0 .274-.224.498-.5.498z"/><path d="m6.5 43.999c-.827 0-1.5.673-1.5 1.5 0 .826.673 1.499 1.5 1.499.826 0 1.499-.673 1.499-1.499 0-.827-.673-1.5-1.499-1.5zm0 1.999c-.276 0-.5-.224-.5-.499 0-.276.224-.5.5-.5.275 0 .499.224.499.5 0 .275-.224.499-.499.499z"/><path d="m27.5 43.999c-.827 0-1.5.673-1.5 1.5 0 .826.673 1.499 1.5 1.499.826 0 1.499-.673 1.499-1.499 0-.827-.673-1.5-1.499-1.5zm0 1.999c-.276 0-.5-.224-.5-.499 0-.276.224-.5.5-.5.275 0 .499.224.499.5 0 .275-.224.499-.499.499z"/><path d="m31.5 40.999c-.827 0-1.5.673-1.5 1.5 0 .826.673 1.499 1.5 1.499.826 0 1.499-.673 1.499-1.499 0-.827-.673-1.5-1.499-1.5zm0 1.999c-.276 0-.5-.224-.5-.499 0-.276.224-.5.5-.5.275 0 .499.224.499.5 0 .275-.224.499-.499.499z"/><path d="m32 28h1.999v5h-1.999z"/></g></g></svg>