<svg id="Layer_3" enable-background="new 0 0 64 64" height="512" viewBox="0 0 64 64" width="512" xmlns="http://www.w3.org/2000/svg"><g><path d="m17 28h-10c-1.657 0-3 1.343-3 3v11h13z" fill="#f7d881"/><path d="m15.894 28h-8.894c-1.657 0-3 1.343-3 3v7.919c6.216-.637 11.151-5.179 11.894-10.919z" fill="#f9e09a"/><path d="m17 42v-24c0-2.209 1.791-4 4-4h10c4.418 0 8 3.582 8 8v20z" fill="#f2c351"/><path d="m2 42h46v4h-46z" fill="#a8b0bc"/><path d="m43 47c0 1.657 1.343 3 3 3h16v-4h-8v-3l-8-8h-3z" fill="#c1c8d1"/><path d="m54 43v3h4.652c1.101-.01 1.348-1.808 1.348-3 0-1.462-.792-2.727-1.963-3.425.592-.697.963-1.589.963-2.575 0-2.209-1.791-4-4-4-.83 0-1.6.253-2.239.685-.546-1.559-2.015-2.685-3.761-2.685-2.209 0-4 1.791-4 4h1z" fill="#c7e2fc"/><circle cx="11" cy="45" fill="#c1c8d1" r="5"/><circle cx="33" cy="45" fill="#c1c8d1" r="5"/><path d="m39 22c0-1.459-.397-2.822-1.079-4h-12.921v16h14z" fill="#ebf7fe"/><g><path d="m62 45h-1.421c.273-.625.421-1.304.421-2 0-1.411-.584-2.717-1.602-3.652.392-.724.602-1.531.602-2.348 0-2.757-2.243-5-5-5-.618 0-1.224.112-1.79.33-.902-1.428-2.482-2.33-4.21-2.33-2.414 0-4.434 1.721-4.899 4h-1.101c-.553 0-1 .447-1 1v6h-2v-19c0-4.963-4.037-9-9-9h-10c-2.757 0-5 2.243-5 5v9h-9c-2.206 0-4 1.794-4 4v10h-1c-.553 0-1 .447-1 1v4c0 .553.447 1 1 1h3.35c.826 2.327 3.043 4 5.65 4s4.824-1.673 5.65-4h10.7c.826 2.327 3.043 4 5.65 4s4.824-1.673 5.65-4h3.35c0 2.206 1.794 4 4 4h16c.553 0 1-.447 1-1v-4c0-.553-.447-1-1-1zm-13-13c1.263 0 2.395.811 2.816 2.016.103.293.336.521.631.619.292.099.618.054.874-.121.496-.336 1.076-.514 1.679-.514 1.654 0 3 1.346 3 3 0 .888-.395 1.538-.726 1.928-.19.225-.272.521-.224.812.048.29.222.544.475.694.923.551 1.475 1.51 1.475 2.566 0 .746-.292 1.451-.787 2h-3.213v-2c0-.266-.105-.52-.293-.707l-8-8c-.145-.145-.334-.222-.534-.258.405-1.18 1.512-2.035 2.827-2.035zm-11.685-13c.434.911.685 1.926.685 3v11h-12v-14zm-16.315-4h10c1.902 0 3.626.765 4.889 2h-10.889c-.553 0-1 .447-1 1v16c0 .553.447 1 1 1h13v6h-.54c-1.099-1.224-2.688-2-4.46-2s-3.36.776-4.46 2h-10.54v-23c0-1.654 1.346-3 3-3zm-16 16c0-1.103.897-2 2-2h9v12h-.54c-1.099-1.224-2.688-2-4.46-2s-3.36.776-4.46 2h-1.54zm-2 14v-2h2.35c-.222.627-.35 1.298-.35 2zm8 4c-2.206 0-4-1.794-4-4s1.794-4 4-4 4 1.794 4 4-1.794 4-4 4zm6-4c0-.702-.128-1.373-.35-2h10.7c-.222.627-.35 1.298-.35 2zm16 4c-2.206 0-4-1.794-4-4s1.794-4 4-4 4 1.794 4 4-1.794 4-4 4zm6-4c0-.702-.128-1.373-.35-2h8.35v2zm22 4h-15c-1.103 0-2-.897-2-2h4c.553 0 1-.447 1-1v-4c0-.553-.447-1-1-1h-4v-5h1.586l7.414 7.414v2.586c0 .553.447 1 1 1h7z"/><path d="m53.586 27h2.828v2h-2.828z" transform="matrix(.707 -.707 .707 .707 -3.69 47.092)"/><path d="m59 29.586h2v2.828h-2z" transform="matrix(.707 -.707 .707 .707 -4.347 51.506)"/><path d="m8 31h6v2h-6z"/><path d="m8 35h6v2h-6z"/><path d="m20 32h2v3h-2z"/></g></g></svg>